<svg width="1088" height="931" viewBox="0 0 1088 931" fill="none" xmlns="http://www.w3.org/2000/svg">
<path d="M409.547 820.182C383.598 817.182 325.452 830.397 300.455 907.25" stroke="#CE5A67" stroke-width="34" stroke-linecap="round"/>
<path d="M257.401 774C280.639 785.93 321.63 829.236 299.69 907.017" stroke="#CE5A67" stroke-width="34" stroke-linecap="round"/>
<path d="M406.344 819.731L324.845 828.958L261.461 775.755" stroke="#CE5A67" stroke-width="34" stroke-linecap="round"/>
<path d="M312.228 865.363C311.617 865.178 310.923 864.538 310.187 863.375C309.466 862.232 308.759 860.671 308.085 858.798C306.739 855.055 305.553 850.141 304.639 845.015C303.725 839.892 303.087 834.576 302.831 830.035C302.575 825.469 302.711 821.761 303.304 819.807C303.569 818.933 304.126 818.345 304.943 817.971C305.781 817.589 306.902 817.429 308.264 817.472C310.987 817.557 314.495 818.441 318.171 819.659C321.838 820.873 325.629 822.404 328.909 823.755C329.36 823.941 329.801 824.123 330.232 824.301C332.918 825.412 335.182 826.348 336.572 826.77C342.535 828.58 345.649 836.41 343.205 844.459C342.623 846.379 340.813 848.776 338.239 851.291C335.681 853.79 332.428 856.35 329.049 858.6C325.67 860.85 322.18 862.779 319.153 864.024C317.639 864.647 316.253 865.094 315.061 865.326C313.86 865.561 312.906 865.569 312.228 865.363Z" fill="#CE5A67" stroke="#CE5A67"/>
<path d="M13 12C194.333 219.333 618 601.847 926 439.5C1291 247.108 877.68 -75 654 177C467.6 387 356 698.5 323.5 828" stroke="#CE5A67" stroke-width="34"/>
</svg>
