<svg width="351" height="1069" viewBox="0 0 351 1069" fill="none" xmlns="http://www.w3.org/2000/svg">
<path d="M225.904 902.553C203.784 916.445 166.686 963.129 195.261 1038.72" stroke="#CE5A67" stroke-width="34" stroke-linecap="round"/>
<path d="M78.3154 961.701C103.908 956.472 162.978 964.616 194.519 1039.02" stroke="#CE5A67" stroke-width="34" stroke-linecap="round"/>
<path d="M223.124 904.206L165.313 962.387L82.5807 960.53" stroke="#CE5A67" stroke-width="34" stroke-linecap="round"/>
<path d="M178.244 998.681C177.651 998.919 176.709 998.854 175.408 998.406C174.13 997.966 172.602 997.191 170.905 996.151C167.513 994.073 163.514 990.981 159.594 987.554C155.676 984.128 151.853 980.38 148.813 976.998C145.756 973.596 143.543 970.618 142.783 968.723C142.443 967.874 142.51 967.067 142.914 966.264C143.328 965.442 144.103 964.616 145.192 963.798C147.369 962.16 150.66 960.656 154.29 959.306C157.91 957.96 161.825 956.782 165.229 955.785C165.697 955.648 166.156 955.514 166.603 955.384C169.394 954.57 171.745 953.884 173.094 953.343C178.878 951.025 186.206 955.186 189.335 962.994C190.081 964.856 190.169 967.858 189.734 971.431C189.302 974.981 188.365 979.013 187.136 982.882C185.907 986.751 184.391 990.439 182.809 993.305C182.017 994.737 181.215 995.953 180.431 996.88C179.641 997.815 178.902 998.418 178.244 998.681Z" fill="#CE5A67" stroke="#CE5A67"/>
<path d="M263.5 17.5C141.167 135 -70.7998 403.7 60.0002 538.5C190.8 673.3 389.5 504 318 424.5C200.001 306.5 -208.8 487 184 975" stroke="#CE5A67" stroke-width="34" stroke-linecap="round"/>
</svg>
