<svg width="33" height="47" viewBox="0 0 33 47" fill="none" xmlns="http://www.w3.org/2000/svg">
<path d="M15.5071 1.29879C15.6477 0.12385 17.3523 0.123845 17.4929 1.29878L19.4721 17.8404C19.5184 18.2273 19.7852 18.5521 20.1557 18.6726L32.0758 22.549C32.9967 22.8485 32.9967 24.1515 32.0758 24.451L20.1557 28.3274C19.7852 28.4479 19.5184 28.7727 19.4721 29.1596L17.4929 45.7012C17.3523 46.8761 15.6477 46.8762 15.5071 45.7012L13.5279 29.1596C13.4816 28.7727 13.2148 28.4479 12.8443 28.3274L0.92425 24.451C0.00326502 24.1515 0.00326479 22.8485 0.92425 22.549L12.8443 18.6726C13.2148 18.5521 13.4816 18.2273 13.5279 17.8404L15.5071 1.29879Z" fill="#F4BF96"/>
</svg>
